<svg xmlns="http://www.w3.org/2000/svg" viewBox="0 0 100 100" fill="none" aria-hidden="true">
  <defs>
    <linearGradient id="glide-body" x1="50" y1="8" x2="50" y2="92" gradientUnits="userSpaceOnUse">
      <stop offset="0%" stop-color="#00C8FF"/>
      <stop offset="42%" stop-color="#3B82F6"/>
      <stop offset="100%" stop-color="#7C3AED"/>
    </linearGradient>
    <linearGradient id="glide-wing" x1="42" y1="44" x2="96" y2="44" gradientUnits="userSpaceOnUse">
      <stop offset="0%" stop-color="#3B82F6"/>
      <stop offset="72%" stop-color="#22D3EE"/>
      <stop offset="100%" stop-color="#34D399"/>
    </linearGradient>
  </defs>
  <!-- G ring -->
  <path
    fill="url(#glide-body)"
    d="M62 18c-18-8-40 2-48 20-6 14-2 32 12 42 8 6 18 8 28 6 2 0 4-8 2-12-12 4-22-2-26-14-4-14 2-28 14-36 10-6 22-8 34-6Z"
  />
  <path
    fill="url(#glide-body)"
    d="M30 58c-2 14 8 26 22 30 16 4 32-4 38-20 2-6 0-12-6-14-10 4-20 0-24-10-2-6 0-12 4-16-8 4-16 2-24-6-6-8-4-18 2-26 8-10 22-14 36-8Z"
  />
  <!-- Top wing -->
  <path
    fill="url(#glide-wing)"
    d="M48 40h34c4 0 7 3 7 7s-3 7-7 7H48c-3 0-5-2-6-5l-4 6c2 4 7 7 12 7 10 0 18-6 20-18 2-10-6-18-16-18-28 0-8 2-14 6-10-4-6-10-8-18-8Z"
  />
  <!-- Bottom tail -->
  <path
    fill="url(#glide-body)"
    d="M58 72h18c3 0 5 2 5 5s-2 5-5 5H58c-2 0-4-1-5-3l-3 4c2 3 6 5 10 5 8 0 14-5 15-14 1-8-6-14-14-14-22 0-6 2-11 5-8-4-5-9-6-15Z"
  />
</svg>
